<svg width="10" height="10" viewBox="0 0 10 10" fill="none" xmlns="http://www.w3.org/2000/svg">
<rect width="10" height="10" rx="2" fill="white"/>
<path d="M1.28831 4.0239L1.74818 3.71868V5.42819H2.11921V3.47242L5.00005 1.56037L8.71167 4.02406L9 3.65504L5.0001 1L1.75958 3.15073H1.74818V3.1583L1 3.65487L1.28831 4.0239Z" fill="#31393C"/>
<path d="M8.22991 7.99562V6.36999H7.85887V7.59563H6.36175V8H8.2294V7.99562H8.22991Z" fill="#31393C"/>
<path d="M2.72949 5.51423V4.33608H2.97258V5.51423H2.72949Z" fill="#31393C"/>
<path d="M4.27819 5.51423H3.96924L3.47051 4.62296H3.46346C3.46555 4.66003 3.46738 4.69737 3.46895 4.73497C3.47051 4.77258 3.47208 4.81019 3.47365 4.84779C3.47522 4.88486 3.47679 4.9222 3.47836 4.95981V5.51423H3.26114V4.33608H3.56775L4.06569 5.21848H4.07118C4.07013 5.18195 4.06882 5.14569 4.06726 5.10969C4.06569 5.0737 4.06412 5.03771 4.06255 5.00171C4.0615 4.96572 4.06046 4.92972 4.05941 4.89373V4.33608H4.27819V5.51423Z" fill="#31393C"/>
<path d="M5.24427 5.18706C5.24427 5.2569 5.2278 5.3176 5.19487 5.36918C5.16193 5.42075 5.11384 5.46051 5.05058 5.48845C4.98785 5.51638 4.91153 5.53035 4.82161 5.53035C4.78188 5.53035 4.74293 5.52766 4.70477 5.52229C4.66713 5.51692 4.6308 5.50913 4.59578 5.49892C4.56127 5.48818 4.52834 5.47501 4.49697 5.45943V5.22735C4.55134 5.25206 4.6078 5.27436 4.66635 5.29423C4.7249 5.31411 4.78293 5.32405 4.84043 5.32405C4.88016 5.32405 4.91205 5.31868 4.9361 5.30793C4.96067 5.29719 4.97844 5.28242 4.98942 5.26361C5.0004 5.24481 5.00589 5.22332 5.00589 5.19914C5.00589 5.1696 4.99622 5.14435 4.97687 5.12339C4.95753 5.10244 4.93087 5.08283 4.89689 5.06457C4.86343 5.0463 4.82553 5.02669 4.78319 5.00574C4.75653 4.99285 4.72751 4.97727 4.69615 4.959C4.66478 4.9402 4.63498 4.91737 4.60675 4.8905C4.57852 4.86364 4.55526 4.83114 4.53696 4.793C4.51919 4.75431 4.5103 4.70811 4.5103 4.65439C4.5103 4.58401 4.52599 4.52384 4.55735 4.47388C4.58872 4.42392 4.63341 4.38577 4.69144 4.35945C4.74999 4.33259 4.819 4.31915 4.89846 4.31915C4.95805 4.31915 5.01477 4.32641 5.06862 4.34091C5.12299 4.35488 5.17971 4.3753 5.23878 4.40216L5.16037 4.59637C5.10757 4.57434 5.06026 4.55742 5.01843 4.5456C4.97661 4.53324 4.93401 4.52706 4.89062 4.52706C4.8603 4.52706 4.83442 4.53217 4.81299 4.54238C4.79155 4.55205 4.77535 4.56601 4.76437 4.58428C4.75339 4.60201 4.7479 4.62269 4.7479 4.64633C4.7479 4.67427 4.75574 4.6979 4.77143 4.71725C4.78763 4.73605 4.81168 4.75431 4.84357 4.77204C4.87598 4.78977 4.91623 4.81046 4.96433 4.83409C5.02288 4.86257 5.0728 4.89238 5.1141 4.92354C5.15592 4.95417 5.18807 4.99043 5.21055 5.03233C5.23303 5.0737 5.24427 5.12527 5.24427 5.18706Z" fill="#31393C"/>
<path d="M5.89433 5.51423H5.65125V4.54399H5.33994V4.33608H6.20564V4.54399H5.89433V5.51423Z" fill="#31393C"/>
<path d="M7.0839 5.51423L7.00078 5.2338H6.58282L6.4997 5.51423H6.23779L6.64242 4.33124H6.93961L7.3458 5.51423H7.0839ZM6.94275 5.02427L6.85963 4.75028C6.8544 4.73202 6.84734 4.70865 6.83846 4.68018C6.83009 4.65117 6.82147 4.62189 6.81258 4.59234C6.80421 4.56225 6.79742 4.5362 6.79219 4.51417C6.78696 4.5362 6.77964 4.5636 6.77023 4.59637C6.76135 4.6286 6.75272 4.65922 6.74436 4.68823C6.73599 4.71725 6.72998 4.73793 6.72632 4.75028L6.64399 5.02427H6.94275Z" fill="#31393C"/>
<path d="M7.49087 5.51423V4.33608H7.73396V5.30793H8.19896V5.51423H7.49087Z" fill="#31393C"/>
<path d="M2.81195 7.4193L2.55144 6.47646H2.5436C2.54592 6.50093 2.54824 6.53406 2.55057 6.57585C2.55347 6.61763 2.55608 6.6627 2.55841 6.71105C2.56073 6.7594 2.56189 6.80596 2.56189 6.85073V7.4193H2.25694V6.11024H2.71524L2.98098 7.03966H2.98795L3.24846 6.11024H3.70763V7.4193H3.39135V6.84536C3.39135 6.80417 3.39193 6.76 3.3931 6.71284C3.39484 6.66509 3.39658 6.62032 3.39832 6.57853C3.40065 6.53615 3.40268 6.50272 3.40442 6.47825H3.39658L3.13955 7.4193H2.81195Z" fill="#F5841F"/>
<path d="M4.73836 7.4193H3.98208V6.11024H4.73836V6.39408H4.32624V6.60002H4.70786V6.88386H4.32624V7.13099H4.73836V7.4193Z" fill="#F5841F"/>
<path d="M5.52338 7.4193H5.17922V6.39945H4.86818V6.11024H5.83356V6.39945H5.52338V7.4193Z" fill="#F5841F"/>
</svg>
