<svg width="66" height="65" viewBox="0 0 66 65" fill="none" xmlns="http://www.w3.org/2000/svg">
<path d="M3.62911 28.8582L7.17226 26.5698V39.3866H10.031V24.7235L32.2272 10.3883L60.8244 28.8593L63.0459 26.0926L32.2276 6.18697L32.2276 6.18707L32.2273 6.18677L7.26014 22.3117H7.17226V22.3684L1.40773 26.0914L3.62911 28.8582Z" fill="#31393C"/>
<path d="M57.1125 58.6355V46.4476H54.2538V55.6366H42.7188V58.6683H57.1086V58.6355H57.1125Z" fill="#31393C"/>
<path d="M15.7331 40.0317V31.1987H17.606V40.0317H15.7331Z" fill="#31393C"/>
<path d="M27.6655 40.0317H25.285L21.4425 33.3495H21.3881C21.4042 33.6274 21.4183 33.9074 21.4304 34.1893C21.4425 34.4713 21.4546 34.7532 21.4667 35.0352C21.4787 35.3131 21.4908 35.593 21.5029 35.875V40.0317H19.8293V31.1987H22.1917L26.0282 37.8143H26.0705C26.0624 37.5405 26.0523 37.2686 26.0402 36.9987C26.0282 36.7289 26.0161 36.459 26.004 36.1891C25.9959 35.9193 25.9879 35.6494 25.9798 35.3795V31.1987H27.6655V40.0317Z" fill="#31393C"/>
<path d="M35.1089 37.5787C35.1089 38.1023 34.982 38.5575 34.7283 38.9442C34.4745 39.3308 34.1039 39.6289 33.6166 39.8383C33.1332 40.0478 32.5452 40.1525 31.8524 40.1525C31.5463 40.1525 31.2462 40.1324 30.9522 40.0921C30.6622 40.0518 30.3822 39.9934 30.1124 39.9169C29.8465 39.8363 29.5928 39.7376 29.3511 39.6208V37.8808C29.77 38.0661 30.205 38.2332 30.6561 38.3823C31.1072 38.5313 31.5543 38.6058 31.9974 38.6058C32.3035 38.6058 32.5492 38.5655 32.7345 38.485C32.9238 38.4044 33.0607 38.2937 33.1453 38.1527C33.2299 38.0117 33.2722 37.8506 33.2722 37.6693C33.2722 37.4478 33.1977 37.2585 33.0487 37.1014C32.8996 36.9443 32.6942 36.7973 32.4324 36.6604C32.1746 36.5234 31.8826 36.3764 31.5563 36.2193C31.3509 36.1227 31.1274 36.0059 30.8857 35.8689C30.644 35.7279 30.4145 35.5568 30.197 35.3554C29.9795 35.154 29.8002 34.9103 29.6592 34.6243C29.5223 34.3343 29.4538 33.9879 29.4538 33.5851C29.4538 33.0575 29.5747 32.6064 29.8163 32.2318C30.058 31.8572 30.4024 31.5712 30.8495 31.3739C31.3006 31.1725 31.8323 31.0718 32.4445 31.0718C32.9037 31.0718 33.3407 31.1262 33.7555 31.2349C34.1744 31.3396 34.6114 31.4927 35.0666 31.6941L34.4624 33.1501C34.0556 32.985 33.6911 32.8581 33.3689 32.7695C33.0466 32.6769 32.7184 32.6305 32.3841 32.6305C32.1504 32.6305 31.9511 32.6688 31.7859 32.7453C31.6208 32.8178 31.4959 32.9226 31.4113 33.0595C31.3268 33.1924 31.2845 33.3475 31.2845 33.5247C31.2845 33.7342 31.3449 33.9114 31.4657 34.0564C31.5906 34.1974 31.7759 34.3343 32.0216 34.4672C32.2713 34.6001 32.5814 34.7552 32.952 34.9324C33.4031 35.1459 33.7878 35.3695 34.106 35.6031C34.4282 35.8327 34.6759 36.1045 34.8491 36.4187C35.0223 36.7289 35.1089 37.1155 35.1089 37.5787Z" fill="#31393C"/>
<path d="M40.1175 40.0317H38.2445V32.7574H35.846V31.1987H42.516V32.7574H40.1175V40.0317Z" fill="#31393C"/>
<path d="M49.2828 40.0317L48.6424 37.9291H45.4221L44.7817 40.0317H42.7638L45.8813 31.1624H48.1711L51.3007 40.0317H49.2828ZM48.1953 36.3583L47.5548 34.3041C47.5146 34.1672 47.4602 33.9919 47.3917 33.7785C47.3273 33.561 47.2608 33.3415 47.1923 33.1199C47.1279 32.8944 47.0755 32.699 47.0353 32.5339C46.995 32.699 46.9386 32.9044 46.8661 33.1501C46.7976 33.3918 46.7312 33.6214 46.6667 33.8389C46.6023 34.0564 46.5559 34.2115 46.5278 34.3041L45.8934 36.3583H48.1953Z" fill="#31393C"/>
<path d="M52.4184 40.0317V31.1987H54.2914V38.485H57.8741V40.0317H52.4184Z" fill="#31393C"/>
<path d="M16.3684 54.3146L14.3612 47.2458H14.3008C14.3187 47.4292 14.3366 47.6776 14.3545 47.9909C14.3769 48.3042 14.397 48.6421 14.4149 49.0046C14.4328 49.3671 14.4418 49.7161 14.4418 50.0518V54.3146H12.0922V44.5001H15.6233L17.6707 51.4683H17.7244L19.7316 44.5001H23.2694V54.3146H20.8326V50.0115C20.8326 49.7027 20.837 49.3715 20.846 49.018C20.8594 48.66 20.8728 48.3243 20.8863 48.011C20.9042 47.6933 20.9198 47.4427 20.9333 47.2592H20.8728L18.8925 54.3146H16.3684Z" fill="#F5841F"/>
<path d="M31.2109 54.3146H25.384V44.5001H31.2109V46.6282H28.0357V48.1722H30.976V50.3002H28.0357V52.153H31.2109V54.3146Z" fill="#F5841F"/>
<path d="M37.2594 54.3146H34.6077V46.6684H32.2112V44.5001H39.6492V46.6684H37.2594V54.3146Z" fill="#F5841F"/>
</svg>
