<svg width="64" height="64" viewBox="0 0 64 64" fill="none" xmlns="http://www.w3.org/2000/svg">
<path d="M13.3333 56C11.8667 56 10.6116 55.4782 9.568 54.4347C8.52444 53.3911 8.00178 52.1351 8 50.6667V13.3333C8 11.8667 8.52267 10.6116 9.568 9.568C10.6133 8.52444 11.8684 8.00178 13.3333 8H50.6667C52.1333 8 53.3893 8.52267 54.4347 9.568C55.48 10.6133 56.0018 11.8684 56 13.3333V50.6667C56 52.1333 55.4782 53.3893 54.4347 54.4347C53.3911 55.48 52.1351 56.0018 50.6667 56H13.3333ZM13.3333 32V50.6667H50.6667V32H45.3333V45.3333H18.6667V32H13.3333ZM24 40H40V32H24V40ZM13.3333 26.6667H50.6667V13.3333H13.3333V26.6667ZM21.3333 21.3333C20.5778 21.3333 19.9449 21.0773 19.4347 20.5653C18.9244 20.0533 18.6684 19.4204 18.6667 18.6667C18.6649 17.9129 18.9209 17.28 19.4347 16.768C19.9484 16.256 20.5813 16 21.3333 16C22.0853 16 22.7191 16.256 23.2347 16.768C23.7502 17.28 24.0053 17.9129 24 18.6667C23.9947 19.4204 23.7387 20.0542 23.232 20.568C22.7253 21.0818 22.0924 21.3369 21.3333 21.3333ZM32 21.3333C31.2444 21.3333 30.6116 21.0773 30.1013 20.5653C29.5911 20.0533 29.3351 19.4204 29.3333 18.6667C29.3316 17.9129 29.5876 17.28 30.1013 16.768C30.6151 16.256 31.248 16 32 16C32.752 16 33.3858 16.256 33.9013 16.768C34.4169 17.28 34.672 17.9129 34.6667 18.6667C34.6613 19.4204 34.4053 20.0542 33.8987 20.568C33.392 21.0818 32.7591 21.3369 32 21.3333ZM42.6667 21.3333C41.9111 21.3333 41.2782 21.0773 40.768 20.5653C40.2578 20.0533 40.0018 19.4204 40 18.6667C39.9982 17.9129 40.2542 17.28 40.768 16.768C41.2818 16.256 41.9147 16 42.6667 16C43.4187 16 44.0524 16.256 44.568 16.768C45.0836 17.28 45.3387 17.9129 45.3333 18.6667C45.328 19.4204 45.072 20.0542 44.5653 20.568C44.0587 21.0818 43.4258 21.3369 42.6667 21.3333Z" fill="#F5841F"/>
</svg>
