<svg width="64" height="64" viewBox="0 0 64 64" fill="none" xmlns="http://www.w3.org/2000/svg">
<path d="M40.2667 4.82666L32.72 12.3733C30.6667 14.4533 30.6667 17.84 32.72 19.92L36.48 23.68L24.3467 35.8133L16.8267 28.2667L13.04 32C-0.160003 45.3333 9.33333 54.6667 9.33333 54.6667C9.33333 54.6667 18.6667 64 32 50.9067L35.76 47.1467L28.2933 39.68L40.4 27.5733L44.1067 31.28C46.1867 33.3333 49.5733 33.3333 51.6533 31.28L59.2 23.7333L40.2667 4.82666ZM47.8133 27.4133L44.1333 23.7333L40.2933 19.8933L36.56 16.16L40.32 12.4L51.6 23.68L47.8133 27.4133Z" fill="#F5841F"/>
</svg>
