<svg width="64" height="64" viewBox="0 0 64 64" fill="none" xmlns="http://www.w3.org/2000/svg">
<path d="M24.8 28.7333C24.8 29.5778 24.9448 30.4 25.2346 31.2C25.5244 32 25.9351 32.7333 26.4666 33.4C26.5555 32.8666 26.7333 32.3449 27 31.8346C27.2666 31.3244 27.6 30.8906 28 30.5333L32 26.6666L35.9333 30.6C36.3333 30.9555 36.6666 31.3778 36.9333 31.8666C37.2 32.3555 37.3777 32.8666 37.4666 33.4C37.9555 32.7333 38.3884 32.0222 38.7653 31.2666C39.1422 30.5111 39.3315 29.7111 39.3333 28.8666C39.3351 28.0222 39.2017 27.2106 38.9333 26.432C38.6649 25.6533 38.2648 24.9315 37.7333 24.2666C37.2444 24.4889 36.7449 24.6666 36.2346 24.8C35.7244 24.9333 35.2017 25 34.6666 25C33.3333 25 32.1111 24.6222 31 23.8666C29.8888 23.1111 29.0444 22.1111 28.4666 20.8666C27.9333 21.4 27.4444 21.9662 27 22.5653C26.5555 23.1644 26.1671 23.7982 25.8346 24.4666C25.5022 25.1351 25.2462 25.824 25.0666 26.5333C24.8871 27.2426 24.7982 27.976 24.8 28.7333ZM32 32.2666L30.8666 33.4C30.6888 33.5778 30.5671 33.7555 30.5013 33.9333C30.4355 34.1111 30.4017 34.3111 30.4 34.5333C30.4 34.9778 30.5555 35.3333 30.8666 35.6C31.1777 35.8666 31.5555 36 32 36C32.4444 36 32.8222 35.8666 33.1333 35.6C33.4444 35.3333 33.6 34.9778 33.6 34.5333C33.6 34.3111 33.5671 34.1111 33.5013 33.9333C33.4355 33.7555 33.3128 33.5778 33.1333 33.4L32 32.2666ZM32 13.3333V18.4C32 19.1555 32.2666 19.7893 32.8 20.3013C33.3333 20.8133 33.9777 21.0684 34.7333 21.0666C35.2222 21.0666 35.6666 20.9226 36.0666 20.6346C36.4666 20.3466 36.8222 20.0018 37.1333 19.6L37.6 18.9333C39.4222 19.9555 40.8337 21.3449 41.8346 23.1013C42.8355 24.8578 43.3351 26.7795 43.3333 28.8666C43.3333 31.9778 42.2222 34.6115 40 36.768C37.7777 38.9244 35.1111 40.0018 32 40C28.8888 39.9982 26.2444 38.9093 24.0666 36.7333C21.8888 34.5573 20.8 31.9129 20.8 28.8C20.8 25.3778 21.8888 22.3333 24.0666 19.6666C26.2444 17 28.8888 14.8889 32 13.3333ZM16 58.6666C14.5333 58.6666 13.2782 58.1449 12.2346 57.1013C11.1911 56.0578 10.6684 54.8018 10.6666 53.3333V16C10.6666 13.0666 11.7111 10.5555 13.8 8.46665C15.8888 6.37776 18.4 5.33331 21.3333 5.33331H42.6666C45.6 5.33331 48.1111 6.37776 50.2 8.46665C52.2889 10.5555 53.3333 13.0666 53.3333 16V53.3333C53.3333 54.8 52.8115 56.056 51.768 57.1013C50.7244 58.1466 49.4684 58.6684 48 58.6666H16ZM16 48V53.3333H48V48C46.6666 48 45.6 48.4444 44.8 49.3333C44 50.2222 42.4 50.6666 40 50.6666C37.6 50.6666 36.0329 50.2222 35.2986 49.3333C34.5644 48.4444 33.4648 48 32 48C30.5351 48 29.4355 48.4444 28.7013 49.3333C27.9671 50.2222 26.4 50.6666 24 50.6666C21.6 50.6666 20.0328 50.2222 19.2986 49.3333C18.5644 48.4444 17.4648 48 16 48ZM24 45.3333C25.4666 45.3333 26.5671 44.8889 27.3013 44C28.0355 43.1111 29.6017 42.6666 32 42.6666C34.3982 42.6666 35.9982 43.1111 36.8 44C37.6017 44.8889 38.6684 45.3333 40 45.3333C41.3315 45.3333 42.3982 44.8889 43.2 44C44.0017 43.1111 45.6017 42.6666 48 42.6666V16C48 14.5333 47.4782 13.2782 46.4346 12.2346C45.3911 11.1911 44.1351 10.6684 42.6666 10.6666H21.3333C19.8666 10.6666 18.6115 11.1893 17.568 12.2346C16.5244 13.28 16.0017 14.5351 16 16V42.6666C18.4 42.6666 19.9671 43.1111 20.7013 44C21.4355 44.8889 22.5351 45.3333 24 45.3333Z" fill="#F5841F"/>
</svg>
