<svg width="64" height="64" viewBox="0 0 64 64" fill="none" xmlns="http://www.w3.org/2000/svg">
<path d="M5.33331 58.6667V17.7334L42.4 2.66669L44.1333 7.06669L22.1333 16H58.6666V58.6667H5.33331ZM10.6666 53.3334H53.3333V34.6667H10.6666V53.3334ZM21.3333 50.6667C23.2 50.6667 24.7778 50.0222 26.0666 48.7334C27.3555 47.4445 28 45.8667 28 44C28 42.1334 27.3555 40.5556 26.0666 39.2667C24.7778 37.9778 23.2 37.3334 21.3333 37.3334C19.4666 37.3334 17.8889 37.9778 16.6 39.2667C15.3111 40.5556 14.6666 42.1334 14.6666 44C14.6666 45.8667 15.3111 47.4445 16.6 48.7334C17.8889 50.0222 19.4666 50.6667 21.3333 50.6667ZM10.6666 29.3334H42.6666V24H48V29.3334H53.3333V21.3334H10.6666V29.3334Z" fill="#F5841F"/>
</svg>
