<svg width="57" height="48" viewBox="0 0 57 48" fill="none" xmlns="http://www.w3.org/2000/svg">
<path d="M17.4667 48C15.7778 48 14.3334 47.3893 13.1334 46.168C11.9334 44.9467 11.3334 43.4907 11.3334 41.8V17.0667L6.4667 5.33333H3.33336C2.57781 5.33333 1.94492 5.07733 1.4347 4.56533C0.924474 4.05333 0.668474 3.42044 0.666696 2.66667C0.664918 1.91289 0.920918 1.28 1.4347 0.768C1.94847 0.256 2.58136 0 3.33336 0H8.2667C8.80003 0 9.28892 0.155555 9.73336 0.466667C10.1778 0.777778 10.5111 1.17778 10.7334 1.66667L14.4667 10.6667H53.8667C54.8889 10.6667 55.6667 11.0889 56.2 11.9333C56.7334 12.7778 56.7556 13.6444 56.2667 14.5333L48.6667 29.4C50.9334 29.7556 52.8338 30.8 54.368 32.5333C55.9023 34.2667 56.6685 36.3111 56.6667 38.6667C56.6667 41.2444 55.7671 43.4444 53.968 45.2667C52.1689 47.0889 49.9796 48 47.4 48C44.7778 48 42.5671 47.0889 40.768 45.2667C38.9689 43.4444 38.0685 41.2444 38.0667 38.6667C38.0667 37.7778 38.1778 36.9556 38.4 36.2C38.6223 35.4444 38.9334 34.7111 39.3334 34L30.6 33.2L22.6 45.2C22.0223 46.0889 21.2783 46.7778 20.368 47.2667C19.4578 47.7556 18.4907 48 17.4667 48ZM42.9334 29L49.5334 16H16.6667L20 24C20.3556 24.8889 20.9227 25.6338 21.7014 26.2347C22.48 26.8356 23.3796 27.1796 24.4 27.2667L42.9334 29ZM17.5334 42.6C17.6223 42.6 17.8223 42.4889 18.1334 42.2667L24.6 32.6667C22.4223 32.4444 20.7111 31.9227 19.4667 31.1013C18.2223 30.28 17.2889 29.424 16.6667 28.5333V41.8667C16.6667 42.0889 16.7556 42.2667 16.9334 42.4C17.1111 42.5333 17.3111 42.6 17.5334 42.6ZM47.3334 42.6667C48.4889 42.6667 49.4445 42.2782 50.2 41.5013C50.9556 40.7244 51.3334 39.7796 51.3334 38.6667C51.3334 37.5111 50.9556 36.5556 50.2 35.8C49.4445 35.0444 48.4889 34.6667 47.3334 34.6667C46.2223 34.6667 45.2783 35.0444 44.5014 35.8C43.7245 36.5556 43.3351 37.5111 43.3334 38.6667C43.3334 39.7778 43.7227 40.7227 44.5014 41.5013C45.28 42.28 46.224 42.6684 47.3334 42.6667Z" fill="#F5841F"/>
</svg>
