<svg width="64" height="64" viewBox="0 0 64 64" fill="none" xmlns="http://www.w3.org/2000/svg">
<path d="M50.4 56L35.8 41.4L41.4 35.8L56 50.4L50.4 56ZM13.6 56L7.99996 50.4L26.4 32L21.8666 27.4667L20 29.3334L16.6 25.9334V31.4L14.7333 33.2667L6.66663 25.2L8.53329 23.3334H14L10.6666 20L20.1333 10.5334C21.0222 9.64446 21.9777 9.00002 23 8.60002C24.0222 8.20002 25.0666 8.00002 26.1333 8.00002C27.2 8.00002 28.2444 8.20002 29.2666 8.60002C30.2889 9.00002 31.2444 9.64446 32.1333 10.5334L26 16.6667L29.3333 20L27.4666 21.8667L32 26.4L38 20.4C37.8222 19.9111 37.6782 19.4 37.568 18.8667C37.4577 18.3334 37.4017 17.8 37.4 17.2667C37.4 14.6445 38.3004 12.4329 40.1013 10.632C41.9022 8.83113 44.1129 7.93157 46.7333 7.93335C47.4 7.93335 48.0337 8.00002 48.6346 8.13335C49.2355 8.26669 49.8462 8.46669 50.4666 8.73335L43.8666 15.3334L48.6666 20.1334L55.2666 13.5334C55.5777 14.1556 55.7893 14.7662 55.9013 15.3654C56.0133 15.9645 56.0684 16.5982 56.0666 17.2667C56.0666 19.8889 55.1671 22.1005 53.368 23.9014C51.5689 25.7022 49.3573 26.6018 46.7333 26.6C46.2 26.6 45.6666 26.5556 45.1333 26.4667C44.6 26.3778 44.0889 26.2222 43.6 26L13.6 56Z" fill="#F5841F"/>
</svg>
